<svg width="31" height="31" viewBox="0 0 31 31" fill="none" xmlns="http://www.w3.org/2000/svg">
    <circle cx="15.5" cy="15.5" r="15.5" fill="#94DF66"/>
    <g clip-path="url(#clip0)">
        <path d="M21.0158 17.7698C20.6269 17.3648 20.1577 17.1483 19.6604 17.1483C19.1672 17.1483 18.694 17.3608 18.289 17.7658L17.0218 19.029C16.9175 18.9728 16.8133 18.9207 16.713 18.8686C16.5687 18.7964 16.4323 18.7282 16.316 18.656C15.129 17.9022 14.0503 16.9197 13.0157 15.6485C12.5145 15.0149 12.1776 14.4816 11.933 13.9402C12.2618 13.6394 12.5666 13.3267 12.8633 13.0259C12.9756 12.9136 13.0879 12.7973 13.2002 12.685C14.0423 11.8429 14.0423 10.7522 13.2002 9.91007L12.1054 8.81531C11.9811 8.691 11.8528 8.56268 11.7325 8.43436C11.4919 8.18573 11.2393 7.92909 10.9786 7.68848C10.5896 7.30351 10.1245 7.099 9.63523 7.099C9.146 7.099 8.67282 7.30351 8.27181 7.68848C8.2678 7.69249 8.2678 7.69249 8.26379 7.6965L6.90036 9.07196C6.38707 9.58525 6.09433 10.2108 6.03017 10.9366C5.93393 12.1076 6.2788 13.1983 6.54346 13.9121C7.1931 15.6645 8.16354 17.2886 9.61117 19.029C11.3676 21.1263 13.4809 22.7824 15.895 23.9494C16.8173 24.3865 18.0484 24.9038 19.4238 24.992C19.508 24.996 19.5963 25 19.6765 25C20.6028 25 21.3808 24.6672 21.9903 24.0055C21.9943 23.9975 22.0023 23.9935 22.0063 23.9854C22.2149 23.7328 22.4555 23.5042 22.7081 23.2596C22.8805 23.0952 23.057 22.9228 23.2294 22.7423C23.6264 22.3293 23.8349 21.8481 23.8349 21.3548C23.8349 20.8576 23.6224 20.3804 23.2174 19.9794L21.0158 17.7698ZM22.4514 21.9924C22.4474 21.9924 22.4474 21.9964 22.4514 21.9924C22.2951 22.1609 22.1347 22.3132 21.9622 22.4817C21.7016 22.7303 21.4369 22.9909 21.1883 23.2837C20.7833 23.7168 20.3061 23.9213 19.6805 23.9213C19.6203 23.9213 19.5562 23.9213 19.496 23.9173C18.305 23.8411 17.1982 23.3759 16.3682 22.9789C14.0985 21.8802 12.1054 20.3202 10.4493 18.3433C9.08184 16.6951 8.16755 15.1713 7.56202 13.5352C7.18909 12.5367 7.05274 11.7587 7.11289 11.0249C7.15299 10.5557 7.33345 10.1667 7.66629 9.83387L9.03372 8.46644C9.23022 8.28197 9.43874 8.18172 9.64325 8.18172C9.89589 8.18172 10.1004 8.3341 10.2287 8.46243C10.2327 8.46644 10.2367 8.47045 10.2408 8.47446C10.4854 8.70303 10.718 8.93963 10.9626 9.19226C11.0869 9.32058 11.2152 9.44891 11.3435 9.58124L12.4383 10.676C12.8633 11.1011 12.8633 11.494 12.4383 11.9191C12.322 12.0354 12.2097 12.1517 12.0934 12.264C11.7566 12.6088 11.4358 12.9297 11.0869 13.2424C11.0789 13.2505 11.0708 13.2545 11.0668 13.2625C10.722 13.6074 10.7861 13.9442 10.8583 14.1728C10.8623 14.1848 10.8663 14.1968 10.8703 14.2089C11.1551 14.8986 11.5561 15.5482 12.1656 16.3222L12.1696 16.3262C13.2764 17.6896 14.4433 18.7523 15.7306 19.5663C15.895 19.6706 16.0634 19.7548 16.2238 19.835C16.3682 19.9072 16.5045 19.9754 16.6208 20.0475C16.6368 20.0556 16.6529 20.0676 16.6689 20.0756C16.8053 20.1438 16.9336 20.1759 17.0659 20.1759C17.3987 20.1759 17.6073 19.9673 17.6754 19.8992L19.0469 18.5277C19.1832 18.3914 19.3998 18.227 19.6524 18.227C19.901 18.227 20.1056 18.3834 20.2299 18.5197C20.2339 18.5237 20.2339 18.5237 20.2379 18.5277L22.4474 20.7373C22.8605 21.1463 22.8605 21.5674 22.4514 21.9924Z" fill="white"/>
        <path d="M16.2679 10.5195C17.3185 10.696 18.2729 11.1932 19.0348 11.9552C19.7967 12.7171 20.29 13.6715 20.4704 14.7221C20.5145 14.9868 20.7431 15.1712 21.0038 15.1712C21.0358 15.1712 21.0639 15.1672 21.096 15.1632C21.3927 15.1151 21.5892 14.8344 21.5411 14.5376C21.3246 13.2665 20.7231 12.1075 19.8048 11.1892C18.8865 10.2709 17.7275 9.66941 16.4563 9.45287C16.1596 9.40474 15.8829 9.60124 15.8308 9.89397C15.7786 10.1867 15.9711 10.4714 16.2679 10.5195Z" fill="white"/>
        <path d="M24.9779 14.3813C24.621 12.288 23.6345 10.3833 22.1187 8.86744C20.6029 7.35163 18.6981 6.36515 16.6049 6.00825C16.3121 5.95612 16.0354 6.15663 15.9833 6.44936C15.9352 6.74611 16.1317 7.0228 16.4284 7.07493C18.2971 7.39173 20.0014 8.27796 21.3568 9.62936C22.7122 10.9848 23.5944 12.689 23.9112 14.5577C23.9554 14.8224 24.1839 15.0069 24.4446 15.0069C24.4767 15.0069 24.5047 15.0029 24.5368 14.9989C24.8296 14.9547 25.0301 14.674 24.9779 14.3813Z" fill="white"/>
    </g>
    <defs>
        <clipPath id="clip0">
            <rect width="19" height="19" fill="white" transform="translate(6 6)"/>
        </clipPath>
    </defs>
</svg>
