<svg width="31" height="31" viewBox="0 0 31 31" fill="none" xmlns="http://www.w3.org/2000/svg">
    <path d="M9.79554 1.16888C13.6882 -0.37443 18.2224 -0.267677 22.0113 1.52483C20.9317 1.36167 19.8335 1.48468 18.7648 1.66441C15.8624 2.20965 13.1042 3.56813 10.9482 5.58625C8.88093 7.60756 7.43229 10.2895 7.0232 13.1588C6.7525 15.1919 7.00333 17.3244 7.92051 19.1749C8.86555 21.1165 10.5291 22.7089 12.5342 23.5308C14.4663 24.344 16.7075 24.3351 18.6645 23.6091C21.6009 22.5371 23.7108 19.6427 23.952 16.5503C24.1038 14.5236 23.6082 12.3675 22.2394 10.813C20.9326 9.2914 19.0214 8.4533 17.1089 7.97626C17.0064 6.09994 17.895 4.24625 19.3043 3.02607C20.0869 2.32405 21.0582 1.87664 22.0625 1.59016L22.1388 1.56403C25.014 2.93557 27.457 5.19748 29.0136 7.97435C30.3472 10.3385 31.0427 13.0628 30.9738 15.7766C30.9607 19.2858 29.6421 22.7602 27.3817 25.4434C25.2443 28.0023 22.2547 29.8429 18.9964 30.58C15.7295 31.3298 12.2145 31.0064 9.15707 29.6253C6.16529 28.2961 3.63065 25.9854 2.01831 23.1432C0.676987 20.7813 -0.0325974 18.058 0.0263477 15.341C0.0327549 11.9558 1.24113 8.5967 3.35098 5.94953C5.03636 3.83581 7.27211 2.15515 9.79554 1.16888Z" fill="#E60000"/>
    <path d="M18.765 1.66441C19.8337 1.48468 20.9319 1.36167 22.0115 1.52483L22.1665 1.55096L22.0627 1.59016C21.0584 1.87664 20.0871 2.32405 19.3045 3.02608C17.8952 4.24625 17.0066 6.09995 17.1091 7.97626C19.0216 8.45331 20.9328 9.2914 22.2395 10.813C23.6084 12.3675 24.104 14.5236 23.9522 16.5503C23.7109 19.6427 21.6011 22.5371 18.6647 23.6091C16.7077 24.3351 14.4665 24.344 12.5344 23.5308C10.5293 22.7089 8.86574 21.1165 7.9207 19.1749C7.00352 17.3244 6.75269 15.1919 7.02338 13.1588C7.43248 10.2895 8.88112 7.60756 10.9484 5.58625C13.1043 3.56813 15.8626 2.20965 18.765 1.66441Z" fill="white"/>
</svg>
